<?xml version="1.0" encoding="utf-8"?>
<!-- Generator: Adobe Illustrator 22.1.0, SVG Export Plug-In . SVG Version: 6.00 Build 0)  -->
<svg version="1.1" id="图层_1" xmlns="http://www.w3.org/2000/svg" xmlns:xlink="http://www.w3.org/1999/xlink" x="0px" y="0px"
	 viewBox="0 0 134 120" style="enable-background:new 0 0 134 120;" xml:space="preserve">
<style type="text/css">
	.st0{fill:url(#SVGID_1_);}
</style>
<linearGradient id="SVGID_1_" gradientUnits="userSpaceOnUse" x1="39.3264" y1="116.69" x2="106.5064" y2="0.331" gradientTransform="matrix(1 0 0 -1 0 122)">
	<stop  offset="0" style="stop-color:#E83A57"/>
	<stop  offset="4.548715e-02" style="stop-color:#E83B59"/>
	<stop  offset="9.562162e-02" style="stop-color:#DE3F5F"/>
	<stop  offset="0.148" style="stop-color:#CB496C"/>
	<stop  offset="0.2019" style="stop-color:#AF5A7C"/>
	<stop  offset="0.2571" style="stop-color:#8C7194"/>
	<stop  offset="0.3132" style="stop-color:#5E8BAD"/>
	<stop  offset="0.3691" style="stop-color:#30A7C7"/>
	<stop  offset="0.4041" style="stop-color:#2DBBDB"/>
	<stop  offset="0.4496" style="stop-color:#4ABFD6"/>
	<stop  offset="0.5173" style="stop-color:#5FC3D5"/>
	<stop  offset="0.6003" style="stop-color:#6AC6D5"/>
	<stop  offset="0.7139" style="stop-color:#70C7D5"/>
	<stop  offset="1" style="stop-color:#129BB2"/>
</linearGradient>
<path class="st0" d="M129.4,59.9c0.4-0.2,0.9-0.4,1.3-0.9c2.4-1.8,3.5-4.6,3.1-7.7v-0.2c-0.2-0.4-0.4-1.1-0.7-1.5
	c0.4-1.5,0.7-2.7,0.4-4l-0.7-2v-0.2c-0.4-0.7-0.9-1.1-1.3-1.5s-0.9-0.7-1.1-0.9v-1.8c-0.2-1.5-1.1-2.9-2.2-3.8
	c-0.4-0.4-0.9-0.9-1.3-1.1c0-0.7,0-1.3-0.2-2l0,0c0-0.2,0-0.4-0.2-0.7c0-0.2,0-0.2,0-0.4V31c-1.3-3.3-3.3-5.5-6-6.9
	c0-0.2,0-0.4-0.2-0.4c-0.7-3.3-3.1-6.2-6.6-7.7l-1.1-1.1c-1.1-2-3.1-3.5-5.3-4.2h-0.2h-0.2c-0.2,0-0.4-0.2-0.4,0
	c-1.1-0.2-2.4-0.2-3.3,0l0,0c0-0.2,0-0.2-0.2-0.4c0-0.2-0.2-0.7-0.4-0.9c-1.5-3.1-4.9-4.9-8.2-4.6c-1.3-1.5-3.3-2.4-5.5-2.7h-0.2
	c0,0-0.2-0.2-0.4-0.2c-1.8-0.7-3.3-0.7-4.9-0.4c-1.8-0.9-4-1.1-5.5-0.7c-0.4,0-0.9,0.2-1.3,0.2l-2-0.4c-2-0.4-4-0.7-5.5-0.2
	c-0.2,0-0.4,0-0.7,0.2c-0.2,0-0.2,0-0.4,0.2c-0.9,0.2-1.8,0.7-2.4,1.1c-0.2,0-0.4,0-0.4-0.2c-0.2,0-0.4,0-0.7-0.2
	c-1.8-0.4-3.8-0.4-5.5,0H58c-2,0.4-3.8,1.3-5.3,2.7h-4c-0.2,0-0.4,0-0.7,0s-0.4,0-0.9,0.2c-3.5,0.7-6.6,2.2-9.3,4.4
	c-0.2,0-0.4,0-0.7,0.2H37h-0.2c-0.2,0.2-0.7,0.2-1.1,0.2s-0.7,0-1.1,0.2c-2,0.7-4.2,1.8-6.2,3.1c-0.4,0.4-0.9,0.7-1.3,1.1
	c-0.4,0.2-0.7,0.7-1.3,1.1c-0.7,0.7-1.3,1.5-2,2.2h-0.4c-3.5,1.3-6.4,3.5-8.6,6.2c-2.2,2.7-3.5,5.5-4.2,8.8c-4.9,4-7.5,9.9-7.3,16.1
	c-0.2,0.2-0.4,0.7-0.4,0.9S2.5,49.6,2.3,50l0,0l-0.4,0.2h0.2c-0.7,2-1.1,3.8-1.5,5.5c-0.2,2.2-0.2,4.4,0.2,6v0.4
	c0.4,2.4,1.3,4.6,2.7,6.4C4.9,71,7.1,73,9.8,74.8c3.1,2,6.9,3.1,10.8,3.3h0.9c1.1,0,2.2,0,3.3-0.2h0.7c2.4-0.4,4.9-1.3,7.5-2.9
	c0.9-0.4,1.8-1.1,2.4-1.8l0,0l0.7,2.2c0.9,2.2,2,4,3.5,6c0.9,1.1,2,2.2,3.1,3.1c2.4,2,5.7,3.5,9.7,4.4c0.2,0,0.2,0,0.4,0
	c0.2,0,0.4,0.2,0.7,0.2c1.1,0.2,2.2,0.2,3.3,0.2c1.3,0,2.7-0.2,4-0.4H62c1.8-0.4,3.5-0.9,5.3-1.8c3.1-1.5,5.5-3.3,7.3-5.7
	c2,3.3,5.1,5.5,8.4,6.4c0.7,0,1.1,0,1.5,0c0.2,0.4,0.4,0.9,0.9,1.3c1.3,2,3.1,3.5,4.9,4.6c1.8,2.9,3.1,5.3,4.4,7.7
	c2,4.9,3.5,10.6,4.2,17v-0.2v0.2c0,0.9,10.4,1.5,10.4,1.3c0,0-2.9-12.4-3.3-20.1v-1.5v-0.4v-0.4l-0.2-0.9V96v-0.2c0-0.7,0-1.1,0-1.5
	c0-0.2,0-0.4,0-0.7c0.2,0,0.4,0.2,0.4,0.2h0.2c0,0,0,0,0.2,0h0.4c0.2,0,0.7,0,0.9,0.2l0,0c1.5,0.2,3.3,0.4,4.9,0
	c1.1-0.2,2-0.4,3.1-0.9c0.4-0.2,1.1-0.7,1.8-0.9c0.4-0.2,0.7-0.4,1.1-0.7c0.4-0.2,0.7-0.7,1.1-0.9l0.2-0.2l1.3-1.1l0,0
	c2-2.4,3.1-5.5,3.3-8.6c0,0,0.2,0,0.2-0.2l0,0l0.2-0.2c0,0,0,0,0.2,0l0,0l1.3-0.7c2.4-2,4.2-4.6,4.9-7.3v0.2l0.2-1.8
	c0.2-2,0-4-0.7-5.7l-0.2-0.4l0,0l-0.2-0.4l0,0C131.2,63.7,129.8,60.4,129.4,59.9z M131.4,44.9c0,0.2,0.2,0.4,0.2,0.7
	c0.2,1.1,0,2.2-0.4,3.3L131.4,44.9z M131.2,53.3v-3.5l0,0c0.4,0.7,0.7,1.1,0.9,1.8c0.2,1.5,0,3.3-1.1,4.6L131.2,53.3z M129.4,53.5
	l-0.2,4.6c0,0.7-0.2,3.5,0,4.2l-0.2,3.1l-13.3-9.3c0.2-0.2,0.2-0.4,0.2-0.9c0-0.2,0-0.4,0-0.7l13.7-8.6L129.4,53.5z M111.3,67.7
	l-4,2.2l2.9-6l2.7-6l0.2,2.4l0.4,4c-1.1,0.4-2,1.5-2,2.7C111.3,67.2,111.3,67.5,111.3,67.7z M109.7,39.6c0.4-0.2,0.7-0.7,0.9-1.1
	l16.4,4.6l-12.2,9.5c-0.2-0.2-0.9-0.4-1.3-0.7L109.7,39.6z M90.9,72.5l3.5-0.9c0.7,0.9,1.5,1.5,2.4,1.5c0,0,0.2,0,0.4,0l7.1,14.4
	L90.9,72.5z M106,92.2h-0.2l-0.2,0.2h-0.2v0.2l0,0v0.4c0,0.4-0.2,1.1-0.2,1.5l-8.8-13.5L106,92.2z M37.9,48.5l11.9-13.7
	c0.2,0,0.2,0,0.4,0l3.1,25c-0.4,0.2-0.7,0.4-0.9,0.7l-14.4-9.5c0.2-0.2,0.2-0.4,0.2-0.9C38.1,49.1,37.9,48.7,37.9,48.5z M53.1,27.5
	l-1.3,2c-0.9-0.4-2.2-0.2-2.9,0.2l-1.3-1.3L35,18.6l17.2,6.6l0,0C52.2,26.1,52.7,26.8,53.1,27.5z M55.3,15.5l-0.4,5.3l-0.2,1.3
	l-3.3-7.7l-1.3-4l4.2,2.7c0,0.2,0,0.4,0,0.4C54,14.4,54.7,15.1,55.3,15.5z M54.9,28.1L54.9,28.1c0,0,0.2,0,0.4,0
	c0.9,0,1.5-0.2,2.2-0.9l9.5,4.2l-13,0.2c0-0.4-0.2-0.7-0.4-1.1L54.9,28.1z M58,15.3l1.3,0.7c0,0.2,0,0.4,0,0.7
	c0,0.7,0.2,1.3,0.4,1.8l-3.3,4.4c0,0,0,0-0.2,0l0,0l0.7-6.9C57.3,15.7,57.5,15.5,58,15.3z M58,10.7l1.1-1.8l0.2,0.2L58,10.7z
	 M77.4,22.8V23c0,0.4,0,0.9,0.2,1.1l-4,3.8l-2.9,2.7l-6.4-11.9c0.2,0,0.2-0.2,0.4-0.4L77.4,22.8z M65.5,16.8L65.5,16.8l19.9-3.8
	c0,0.4,0.2,0.7,0.4,0.9l-4.4,6.4c-1.3-0.2-2.7,0.2-3.3,1.1L65.5,16.8z M69.7,38.3l1.3-4.6l10.2,9.1l2.2,2l-8.8-2.9L71,40.7l0,0
	C71,39.8,70.6,38.9,69.7,38.3z M68.2,38.1L68.2,38.1c-0.9,0-1.5,0.4-2.2,0.9l-11.7-6l15.5-0.2L68.2,38.1z M68.8,30.1l-10.6-4.4
	c0-0.2,0-0.4,0-0.7c0-0.7-0.2-1.1-0.4-1.5l3.5-4.4c0.2,0.2,0.7,0.2,1.1,0.2c0,0,0.2,0,0.4,0L68.8,30.1z M61.5,38.5l3.5,1.8
	c0,0.2,0,0.4,0,0.7c0,0.7,0.4,1.3,0.7,1.8L63.5,46l-8.2,13.5c-0.2,0-0.4,0-0.7,0l-3.1-25c0.2-0.2,0.4-0.2,0.7-0.4L61.5,38.5z
	 M47.6,30.8c-0.2,0.2-0.2,0.4-0.2,0.9c0,0.7,0.4,1.3,0.7,1.8L36.5,47.1c-0.2,0-0.4-0.2-0.9-0.2L35.2,44L31,17.9c0.2,0,0.2,0,0.4-0.2
	L47.6,30.8z M51.6,61.7c0,0.2,0,0.2,0,0.4c0,0.7,0.2,1.3,0.4,1.8l-2.7,2.9c-0.4-0.2-0.7-0.2-1.1-0.2c-0.2,0-0.4,0-0.7,0l-8.4-13.3
	L51.6,61.7z M48.9,72.1c0.4-0.2,0.7-0.2,1.1-0.7l7.5,5.1c0,0.2,0,0.2,0,0.4l-4.2,1.3l-4.6,1.5L48.9,72.1z M58,78.7
	c0,0.2,0.2,0.2,0.4,0.4l-1.1,2l-0.7,0.9l-5.3-1.1L58,78.7z M50.9,69.7c0-0.2,0.2-0.4,0.2-0.7c0-0.7-0.2-1.1-0.4-1.5l2.7-3.1
	c0.2,0.2,0.7,0.2,1.1,0.2l0.4,0.9l3.8,9.1L50.9,69.7z M56.2,64.6c0.2-0.2,0.4-0.2,0.4-0.4l25,8.2l-18.6,3.3
	c-0.4-0.9-1.3-1.5-2.7-1.5c-0.2,0-0.2,0-0.4,0L58.7,71L56.2,64.6z M67.5,43.4c0.2,0,0.7,0,0.9,0c0.9,0,1.8-0.7,2.4-1.3l5.3,1.8
	l8,2.7c0,0.2,0,0.4,0.2,0.7L57.1,60.4L67.5,43.4z M81.4,40.7l-9.5-8.6h0.2l-0.4-0.2l0,0l6.9-6.4c0.4,0.2,0.9,0.4,1.5,0.4l4.6,17.7
	c0,0-0.2,0-0.2,0.2L81.4,40.7z M82.1,25.7c0.7-0.4,1.1-1.1,1.3-1.8l6.9-0.2c0.2,0.7,0.7,1.1,1.1,1.5l-4.6,18.1l0,0L82.1,25.7z
	 M105.5,38.7l-0.7,0.9l-7.5-11.5l8.2,7.5c-0.2,0.4-0.4,0.9-0.4,1.5C105.1,37.8,105.3,38.3,105.5,38.7z M103.7,40.7l-14.4,4.2
	c-0.2-0.4-0.7-0.9-1.1-1.3L92,29.9l1.1-4.2l0,0c0.2,0,0.4,0,0.7,0L103.7,40.7z M92.7,19.9C92.5,19.9,92.5,19.9,92.7,19.9l-2.9-5.7
	c0.4-0.2,0.7-0.7,0.9-1.1h2.2c0.2,0.4,0.7,1.1,1.1,1.3L92.7,19.9z M86.9,55.1l0.7,6l1.1,10.4h-1.3c-0.2-0.9-0.9-1.5-1.5-1.8
	L86.9,55.1z M88.1,51.8l7.3,16.4c-0.7,0.7-1.1,1.3-1.1,2l-4,0.9L88.1,51.8z M97.1,67.5c-0.2,0-0.2,0-0.4,0l-4-9.1l-4.2-9.9
	c0.2,0,0.2-0.2,0.4-0.2l21.4,6.9l0,0c0,0.7,0.2,1.1,0.4,1.8L98.7,67.7C98,67.5,97.6,67.5,97.1,67.5z M110.4,53.3l-20.8-6.6
	c0,0,0,0,0-0.2l15-4.4l6.4,10.6C110.8,52.9,110.6,53.1,110.4,53.3z M117.7,52l-1.5,1.1L117.7,52L117.7,52z M114.6,57.3
	C114.8,57.3,114.8,57.1,114.6,57.3l9.9,6.6l3.1,2.2l-10.2,0.2l0,0c-0.4-1.1-1.3-1.8-2.4-2l-0.7-6.9
	C114.6,57.3,114.6,57.3,114.6,57.3z M128.9,43.8L128.9,43.8l-1.3,1.1L128.9,43.8z M126.7,36.3c0.7,0.9,1.3,1.8,1.5,2.7
	c0,0.2,0,0.4,0.2,0.7l-0.2-0.2v2.2l-15-4.2L126.7,36.3z M111.7,16.6l0.2-0.2l0,0l0,0v0.2c3.1,1.1,5.3,3.5,6.2,6.2l-8.8-8l2,0.7
	C111.5,16,111.5,16.4,111.7,16.6z M109.7,13.5l-0.7-0.2v-0.2C109.3,13.3,109.5,13.3,109.7,13.5z M107.5,15.7L124.1,31
	c0.2,0.2,0.2,0.4,0.2,0.7v0.2c0.2,0.7,0.2,1.3,0.2,2c0,0.2,0.2,0.4,0.4,0.7l-14.1,1.1c-0.4-0.9-1.1-1.3-2-1.5l-0.7-6.2l-1.1-12.4
	C107.3,16,107.5,16,107.5,15.7z M108.2,40.3l2.7,9.7l-4.9-8.6l1.1-1.3C107.3,40.1,107.7,40.3,108.2,40.3z M104.4,15.3
	c0.2,0.2,0.7,0.4,1.1,0.7l1.1,11.3l0.4,7.5c0,0-0.2,0-0.2,0.2l-7.7-7.3l-3.3-3.1c0.2-0.4,0.4-0.9,0.4-1.5c0-0.4-0.2-0.9-0.4-1.1
	L104.4,15.3z M104.2,12.2C104,12.2,104,12.2,104.2,12.2h-0.9H104.2z M101.1,10.7C101.1,10.9,101.3,10.9,101.1,10.7l-0.4,0.2
	L101.1,10.7z M100.7,9.1l-3.8,1.5c-0.4-0.4-0.9-0.9-1.5-0.9l-0.7-3.5C97.1,6.2,99.1,7.3,100.7,9.1z M95.6,14.9
	c0.7-0.2,1.5-0.7,1.8-1.3l1.8,0.2l4.4,0.2c0,0,0,0,0,0.2l-9.1,6.6c-0.2,0-0.2-0.2-0.4-0.2L95.6,14.9z M93.8,12.4L93.8,12.4
	L93.8,12.4L93.8,12.4z M88.7,3.6c1.5,0.2,2.9,0.9,4.2,2.2l0.9,4.4c-0.4,0.2-0.9,0.7-1.1,1.3h-2c-0.2-1.1-1.1-1.8-2.2-2v-6H88.7z
	 M88.3,3.4L88.3,3.4L88.3,3.4C88.5,3.4,88.3,3.4,88.3,3.4L88.3,3.4z M88.3,14.9l2.7,6c-0.2,0.2-0.7,0.7-0.7,1.3h-7.1
	c-0.2-0.4-0.4-0.7-0.7-1.1l4.6-6.4c0.2,0,0.7,0,0.9,0C88.1,14.9,88.3,14.9,88.3,14.9z M83,2.7L83,2.7h0.7c1.3-0.2,2.4-0.2,3.5,0v6.4
	c-0.2,0-0.4,0.2-0.7,0.2l-8.6-7.5C79.4,1.6,81.2,1.8,83,2.7z M68.6,1.8h0.2c2.2-0.4,4.6-0.2,6.6,0.7l9.7,8.4
	C85,11.1,85,11.5,85,11.8l-19.2,3.5l-0.7,0.2c-0.2-0.4-0.7-0.9-1.1-1.1l1.1-3.1L68.6,1.8z M64.8,3.4L64.8,3.4h0.2
	c0.4-0.2,0.7-0.4,1.1-0.7L62.4,14l0,0c-0.9,0-1.5,0.4-2.2,0.9l-1.5-0.7V14c0-0.7-0.2-1.1-0.7-1.5l2.7-3.5L64.8,3.4z M58,2.7
	c0.2,0,0.4-0.2,0.4-0.2c1.1-0.2,2.2-0.2,3.5,0l-5.5,8.8c-0.4,0-0.9,0.2-1.1,0.4l-4.2-2.4c0.2-0.4,0.2-0.7,0.2-1.1c0-0.2,0-0.4,0-0.7
	L58,2.7z M49.1,5.1c0.7,0,1.3-0.2,2-0.2L50,5.6C49.8,5.6,49.6,5.3,49.1,5.1L49.1,5.1z M48.3,11.1L48.3,11.1l5.3,12.2
	c-0.2,0.2-0.4,0.4-0.7,0.7l-20.1-8c0,0,0-0.2,0-0.4c0,0,0-0.2,0-0.4l11.7-4.6l1.3-0.4C46.5,10.7,47.4,11.1,48.3,11.1z M33.9,11.8
	l1.1-1.3c0.4-0.2,1.1-0.2,1.8-0.2c0.2,0,0.4,0,0.9-0.2c0.2,0,0.4,0,0.4,0h0.4l0.2-0.2c2.7-2.2,5.7-3.8,8.6-4.2c0.2,0,0.2,0,0.4,0
	c-1.1,0.4-2.2,1.3-2.2,2.7c0,0.2,0,0.4,0,0.7L32.3,14L33.9,11.8z M31.7,11.5l-1.1,1.3c0,0-0.4-0.2-0.7-0.2
	C30.6,12.2,31.2,12,31.7,11.5z M29.5,18.2C29.5,18.2,29.5,18.4,29.5,18.2l3.3,19.9l1.5,8.8c-1.1,0.4-1.8,1.3-2,2.4l-18.1,2.2
	c-0.2-0.4-0.4-0.7-0.7-0.9L29.5,18.2z M26.2,15.7L26.2,15.7L26.2,15.7L26.2,15.7z M4,48.9c0-0.2,0.2-0.4,0.4-0.4l0.2-0.2V48l0,0
	c-0.2-6,2.4-11.5,7.1-15.5l0.2-0.2v-0.4c0.7-2.9,2-5.7,3.8-8.4l12.2-6.4l0,0L12,49.8c-0.2,0-0.4,0-0.7,0c-0.9,0-2,0.4-2.4,1.1
	l-5.1-1.8C3.8,49.3,3.8,49.1,4,48.9z M3.2,50.7l5.3,1.8l0,0l-6.4,1.8C2.3,53.1,2.7,51.8,3.2,50.7z M5.6,68.1l-0.9-0.4
	c-0.4-0.9-0.9-1.8-1.3-2.9l3.8,4L5.6,68.1z M9.6,72.8c-1.1-0.7-1.8-1.5-2.7-2.2l2.9,1.5L9.6,72.8z M10.2,69.9l-8.2-8.2v-0.4
	c-0.4-1.5-0.4-3.1-0.2-5.1l7.1-1.8c0.2,0.4,0.9,0.9,1.8,1.3L10.2,69.9z M20.4,76.5c-3.8-0.2-6.9-1.1-9.3-2.7l0.4-1.1l9.5,3.3
	l0.2,0.2L20.4,76.5z M11.8,71.2l0.4-9.7l0.2-5.5l10.6,19L11.8,71.2z M24.6,74.5l-5.1-9.3l-5.7-10.2c0.4-0.4,0.7-0.9,0.7-1.3
	l18.1-2.2c0.2,0.4,0.4,0.7,0.9,1.1l-0.9,2L24.6,74.5z M32.6,73.2L26.4,75l6.4-16.1l2.4-6.4l0,0c0.2,0,0.7,0,0.9-0.2l5.3,8l4.6,7.1
	c-0.7,0.4-0.9,1.3-0.9,2.2L37,72.1C37,71.9,33.4,72.8,32.6,73.2z M37.6,73.4L39,73L37.6,73.4L37.6,73.4L37.6,73.4z M38.3,75.2l7.5-4
	c0.4,0.4,0.9,0.7,1.5,0.9l-0.2,7.7l-6-0.2C40.1,78.3,39,76.5,38.3,75.2z M43.8,82.5c-0.4-0.4-0.9-0.7-1.3-1.1h2.9L43.8,82.5z
	 M45.4,83.6l2.4-1.8l2.9,3.8l0.4,0.7C49.1,85.8,47.2,84.9,45.4,83.6z M53.8,87.1L53.8,87.1L50,82.1l5.7,1.3l-1.1,2.2L53.8,87.1z
	 M55.6,87.4l1.5-3.1l3.3,2.9C59.1,87.6,57.3,87.6,55.6,87.4z M62.6,86.7l-4.4-4.2l1.5-2.4l0.2-0.2c0.7,0.2,1.5,0,2-0.2l4.6,6
	C65.1,86,64,86.5,62.6,86.7z M83.2,85.4c-3.1-0.9-5.7-3.3-7.1-6l0,0l0,0h-0.2h-0.2l0.2-0.2l-0.4-0.4h-0.7V79c-2,2.7-4.4,4.6-7.1,5.7
	l-4-5.3l-0.7-0.7c0.2-0.4,0.4-0.9,0.4-1.5l6.6-1.3l11.7-2.4c0.4,0.7,1.1,1.1,2,1.1L83.2,85.4z M84.1,69.5c-0.9,0-1.5,0.4-2.2,1.1
	l-24.5-8.2c0-0.2,0-0.4,0-0.4l10.8-5.1l17-8.2c0.2,0.2,0.4,0.2,0.9,0.4l0,0L84.1,69.5z M86.1,86.3h-0.2c-0.2,0-0.4,0-0.4,0h-0.2
	l0.2-7.5l0.2-3.3c1.1-0.4,1.5-1.1,1.8-2l1.3-0.2L86.1,86.3L86.1,86.3z M92,94.7c0.7,1.1,1.3,2.2,2,3.5C93.4,96.9,92.7,95.8,92,94.7z
	 M93.4,94.7l-1.5-2.2l0,0c-2-1.1-3.5-2.7-4.4-4.2L90,74.1l14.8,22.8l-8.6,3.3C95.6,98.4,94.7,96.6,93.4,94.7z M96.9,101.9l8-3.1v0.2
	l-4,18.1C100,111.5,98.7,106.4,96.9,101.9z M108.2,116.9L102,118l3.5-13.6C106,109.1,107.1,113.5,108.2,116.9z M102.2,78.7l-3.1-6.4
	c0.2-0.2,0.4-0.4,0.7-0.9l5.1,1.1l0,0l0,0l0,0l1.5,15.5L102.2,78.7z M105.5,71L105.5,71L105.5,71L105.5,71l-5.5-0.9
	c0-0.2-0.2-0.7-0.2-0.9l8.6-8l2.9-2.7L105.5,71z M118.3,90.9c-0.2,0.2-0.7,0.4-0.9,0.7c-0.2,0.2-0.7,0.2-0.9,0.4h-8l-1.5-14.4
	l-0.2-3.1l12.4,15.7C119,90.5,118.8,90.7,118.3,90.9z M106.8,72.3l5.5-3.1c0.7,0.7,1.5,0.7,2.2,0.7l6,19L106.8,72.3z M125.4,79
	c-0.2,0.2-0.4,0.2-0.7,0.4c0,0-0.4,0.2-0.7,0.4h-0.4v0.7c0.2,2.4-0.7,5.1-2.2,7.1l-0.9-3.5l-4.4-14.6c0.4-0.2,0.9-0.9,1.3-1.8
	l11.5-0.2L125.4,79z M130.3,71.4c-0.4,2-1.1,3.8-2.4,5.1l2-7.1l0.4,1.1C130.5,70.8,130.3,71,130.3,71.4z"/>
</svg>
