<?xml version="1.0" encoding="utf-8"?>
<!-- Generator: Adobe Illustrator 22.0.1, SVG Export Plug-In . SVG Version: 6.00 Build 0)  -->
<svg version="1.1" id="图层_1" xmlns="http://www.w3.org/2000/svg" xmlns:xlink="http://www.w3.org/1999/xlink" x="0px" y="0px"
	 viewBox="0 0 78.6 92.9" style="enable-background:new 0 0 78.6 92.9;" xml:space="preserve">
<style type="text/css">
	.st0{fill:#25C1D6;}
	.st1{fill:#00E1FF;}
	.st2{fill:#FFFFFF;}
</style>
<g>
	<path class="st0" d="M39.6,92.4V0.5l1,0.7c10.5,7.5,22.6,12.2,35.7,12.7h1.9v30.6c0,22.6-15.7,42.6-38.1,47.8L39.6,92.4L39.6,92.4z
		"/>
	<path class="st1" d="M39.6,92.4V0.5l-1,0.7C28.1,8.7,16,13.4,3,13.9H1.1v30.6c0,22.6,15.7,42.6,38.1,47.8L39.6,92.4L39.6,92.4z"/>
	<path class="st2" d="M37.5,27.1l-13,23.2h12.8l-8.1,19.6l25.7-28.6H39.5l9.6-14.1H37.5z"/>
</g>
</svg>
