<?xml version="1.0" encoding="utf-8"?>
<!-- Generator: Adobe Illustrator 22.1.0, SVG Export Plug-In . SVG Version: 6.00 Build 0)  -->
<svg version="1.1" id="图层_1" xmlns="http://www.w3.org/2000/svg" xmlns:xlink="http://www.w3.org/1999/xlink" x="0px" y="0px"
	 viewBox="0 0 1018 912" style="enable-background:new 0 0 1018 912;" xml:space="preserve">
<style type="text/css">
	.st0{fill:none;stroke:#00E1FF;stroke-miterlimit:10;}
	.st1{fill:#00E1FF;}
</style>
<g>
	<path class="st0" d="M1.8,25.6C0.9,25,0.5,24.1,0.5,23c0-6.4,0-12.9,0-19.3c0-1.6,0.9-2.7,2.4-3.1c0.3-0.1,0.6-0.1,1-0.1
		c7.1,0,14.2,0,21.3,0c1.4,0,2.4,0.5,3,1.8c0.2,0.4,0.3,0.9,0.3,1.4c0,6.4,0,12.9,0,19.3c0,1.5-0.9,2.7-2.4,3.1
		c-0.3,0.1-0.7,0.1-1,0.1c-3.5,0-7.1,0-10.6,0H3.8C3.2,26.2,2.5,26.1,1.8,25.6L1.8,25.6z"/>
	<path class="st1" d="M6.4,21.4c-0.6-0.4-0.8-1-0.8-1.7c0-4.2,0-8.5,0-12.7c0-1,0.6-1.8,1.6-2c0.2-0.1,0.4-0.1,0.6-0.1
		c4.7,0,9.4,0,14.1,0c0.9,0,1.6,0.3,2,1.2C24,6.4,24.1,6.7,24.1,7c0,4.2,0,8.5,0,12.7c0,1-0.6,1.8-1.6,2c-0.2,0.1-0.5,0.1-0.7,0.1
		c-2.3,0-4.7,0-7,0h-7C7.2,21.8,6.8,21.7,6.4,21.4L6.4,21.4z"/>
    <animateMotion id="exchange1_1" path="m420,514c0,0 -25.454136,-3.636305 -24.999598,13.636144"  dur="2s" begin="0s;exchange1_2.end+1.5s" rotate="auto" fill="freeze"></animateMotion>
    <animateMotion id="exchange1_2" path="m368,526c0,0 29.090441,3.181767 29.090441,-8.636225"  dur="2s" begin="exchange1_1.end+1.5s" rotate="auto" fill="freeze"></animateMotion>
</g>
</svg>
