<?xml version="1.0" encoding="utf-8"?>
<!-- Generator: Adobe Illustrator 22.1.0, SVG Export Plug-In . SVG Version: 6.00 Build 0)  -->
<svg version="1.1" id="图层_1" xmlns="http://www.w3.org/2000/svg" xmlns:xlink="http://www.w3.org/1999/xlink" x="0px" y="0px"
	 viewBox="0 0 1018 912" style="enable-background:new 0 0 1018 912;" xml:space="preserve">
<style type="text/css">
	.st0{fill:#00E1FF;}
</style>
<g>
	<path class="st0" d="M27,25.9c-0.6,0.4-1.3,0.6-2,0.6c-7.2,0-14.3,0-21.5,0c-1.6,0-2.7-0.9-3.2-2.4c-0.1-0.3-0.1-0.6-0.1-0.9
		c0-6.4,0-12.7,0-19.1c0-1.6,0.9-2.8,2.4-3.2c0.3-0.1,0.7-0.1,1-0.1c3.5,0,7.1,0,10.6,0c3.6,0,7.1,0,10.7,0c0.8,0,1.5,0.2,2.2,0.7
		c0.7,0.6,1.1,1.3,1.2,2.3c0,0.1,0,0.2,0,0.4c0,6.4,0,12.7,0,19.1C28.3,24.3,27.9,25.2,27,25.9z"/>

    <animateMotion id="exchange2_1" path="m368,526c0,0 29.090441,3.181767 29.090441,-8.636225"  dur="2s" begin="0s;exchange2_2.end+1.5s" rotate="auto" fill="freeze"></animateMotion>
    <animateMotion id="exchange2_2" path="m420,514c0,0 -25.454136,-3.636305 -24.999598,13.636144"  dur="2s" begin="exchange2_1.end+1.5s" rotate="auto" fill="freeze"></animateMotion>
</g>
</svg>
