<?xml version="1.0" encoding="utf-8"?>
<!-- Generator: Adobe Illustrator 22.1.0, SVG Export Plug-In . SVG Version: 6.00 Build 0)  -->
<svg version="1.1" id="图层_1" xmlns="http://www.w3.org/2000/svg" xmlns:xlink="http://www.w3.org/1999/xlink" x="0px" y="0px"
	 viewBox="0 0 159.1 48.1" style="enable-background:new 0 0 159.1 48.1;" xml:space="preserve">
<style type="text/css">
	.st0{fill:url(#SVGID_1_);}
	.st1{fill:url(#SVGID_2_);}
	.st2{fill:url(#SVGID_3_);}
</style>
<linearGradient id="SVGID_1_" gradientUnits="userSpaceOnUse" x1="9.6" y1="24.8" x2="144" y2="24.8" gradientTransform="matrix(1 0 0 -1 0 48)">
	<stop  offset="0" style="stop-color:#0CE0E6"/>
	<stop  offset="9.614082e-02" style="stop-color:#14D9E0"/>
	<stop  offset="0.2471" style="stop-color:#2BC7D0"/>
	<stop  offset="0.4341" style="stop-color:#4FA9B6"/>
	<stop  offset="0.6499" style="stop-color:#828091"/>
	<stop  offset="0.8868" style="stop-color:#C34C63"/>
	<stop  offset="1" style="stop-color:#E4314B"/>
</linearGradient>
<rect x="9.6" y="7.5" class="st0" width="134.4" height="31.4"/>
<g>
	<linearGradient id="SVGID_2_" gradientUnits="userSpaceOnUse" x1="44.7" y1="3.9" x2="158.3" y2="3.9">
		<stop  offset="0" style="stop-color:#0CE0E6"/>
		<stop  offset="9.614082e-02" style="stop-color:#14D9E0"/>
		<stop  offset="0.2471" style="stop-color:#2BC7D0"/>
		<stop  offset="0.4341" style="stop-color:#4FA9B6"/>
		<stop  offset="0.6499" style="stop-color:#828091"/>
		<stop  offset="0.8868" style="stop-color:#C34C63"/>
		<stop  offset="1" style="stop-color:#E4314B"/>
	</linearGradient>
	<path class="st1" d="M158.3,3.9c0,2.2-1.8,3.9-3.9,3.9c-2.1,0-3.8-1.6-3.9-3.7H44.7V2.9h105.9c0.5-1.7,2-2.9,3.8-2.9
		C156.6,0,158.3,1.8,158.3,3.9z"/>
</g>
<g>
	<linearGradient id="SVGID_3_" gradientUnits="userSpaceOnUse" x1="9.602486e-02" y1="44.05" x2="115.4" y2="44.05">
		<stop  offset="0" style="stop-color:#0CE0E6"/>
		<stop  offset="9.614082e-02" style="stop-color:#14D9E0"/>
		<stop  offset="0.2471" style="stop-color:#2BC7D0"/>
		<stop  offset="0.4341" style="stop-color:#4FA9B6"/>
		<stop  offset="0.6499" style="stop-color:#828091"/>
		<stop  offset="0.8868" style="stop-color:#C34C63"/>
		<stop  offset="1" style="stop-color:#E4314B"/>
	</linearGradient>
	<path class="st2" d="M115.4,44.7H7.9C7.5,46.6,5.9,48,4,48c-2.2,0-4-1.8-3.9-4c0-2.2,1.8-3.9,3.9-3.9c2,0,3.6,1.4,3.9,3.3h107.5
		V44.7z"/>
</g>
</svg>
