<?xml version="1.0" encoding="utf-8"?>
<!-- Generator: Adobe Illustrator 22.0.1, SVG Export Plug-In . SVG Version: 6.00 Build 0)  -->
<svg version="1.1" id="图层_1" xmlns="http://www.w3.org/2000/svg" xmlns:xlink="http://www.w3.org/1999/xlink" x="0px" y="0px"
	 viewBox="0 0 16.2 15.8" style="enable-background:new 0 0 16.2 15.8;" xml:space="preserve">
<style type="text/css">
	.st0{fill:#00E1FF;}
</style>
<path class="st0" d="M0,4.7h1.5c0-1.5,0.6-2.7,1.7-3.6c0.9-0.7,2-0.9,3.1-0.8v1.8c0,0-0.1,0-0.1,0c-0.3,0-0.6,0-0.9,0
	C4.9,2.2,4.5,2.4,4.1,2.7C3.7,3.1,3.4,3.6,3.3,4.2c0,0.2,0,0.4-0.1,0.5h1.3C3.8,5.6,3,6.4,2.3,7.3C1.5,6.5,0.8,5.6,0,4.7z M7.5,15.4
	c-0.2,0.1-0.3,0.2-0.5,0.2c-1.9,0-3.8,0-5.6,0c-0.4,0-0.7-0.2-0.8-0.6c0-0.1,0-0.2,0-0.2c0-1.7,0-3.3,0-5c0-0.4,0.2-0.7,0.6-0.8
	c0.1,0,0.2,0,0.3,0c0.9,0,1.9,0,2.8,0c0.9,0,1.9,0,2.8,0c0.2,0,0.4,0,0.6,0.2c0.2,0.2,0.3,0.3,0.3,0.6c0,0,0,0.1,0,0.1
	c0,1.7,0,3.3,0,5C7.8,15,7.7,15.2,7.5,15.4z M8.2,6.8C8,6.7,7.9,6.4,7.9,6.1c0-1.7,0-3.4,0-5.1c0-0.4,0.2-0.7,0.6-0.8
	c0.1,0,0.2,0,0.3,0c1.9,0,3.7,0,5.6,0c0.4,0,0.6,0.1,0.8,0.5c0.1,0.1,0.1,0.2,0.1,0.4c0,1.7,0,3.4,0,5.1c0,0.4-0.2,0.7-0.6,0.8
	c-0.1,0-0.2,0-0.3,0c-0.9,0-1.9,0-2.8,0H8.7C8.5,7,8.4,6.9,8.2,6.8L8.2,6.8z M14.6,11.1c0,1.5-0.6,2.8-1.9,3.7
	c-0.9,0.7-1.9,0.8-3,0.8v-1.8c0.2,0,0.3,0,0.5,0c0.2,0,0.4,0,0.6-0.1c0.7-0.1,1.3-0.5,1.7-1.2c0.3-0.4,0.4-0.9,0.4-1.4h-1.3
	c0.8-0.9,1.5-1.7,2.2-2.6c0.7,0.9,1.5,1.7,2.2,2.6L14.6,11.1L14.6,11.1z"/>
</svg>
