<?xml version="1.0" encoding="utf-8"?>
<!-- Generator: Adobe Illustrator 22.0.1, SVG Export Plug-In . SVG Version: 6.00 Build 0)  -->
<svg version="1.1" id="图层_1" xmlns="http://www.w3.org/2000/svg" xmlns:xlink="http://www.w3.org/1999/xlink" x="0px" y="0px"
	 viewBox="0 0 15.2 17" style="enable-background:new 0 0 15.2 17;" xml:space="preserve">
<style type="text/css">
	.st0{fill:#00E1FF;}
</style>
<path class="st0" d="M12.6,0.1H2.8c-1.3,0-2.4,1.1-2.4,2.4v12.3c0,1.3,1.1,2.4,2.4,2.4h9.8c1.3,0,2.4-1.1,2.4-2.4V2.4
	C14.9,1.1,13.9,0.1,12.6,0.1z M13.9,14.7c0,0.7-0.6,1.3-1.3,1.3H2.8c-0.7,0-1.3-0.6-1.3-1.3V2.4c0-0.7,0.6-1.3,1.3-1.3h9.8
	c0.7,0,1.3,0.6,1.3,1.3L13.9,14.7L13.9,14.7z M3.8,6.6h7.7c0.3,0,0.5-0.2,0.5-0.5c0-0.3-0.2-0.5-0.5-0.5H3.8c-0.3,0-0.5,0.2-0.5,0.5
	C3.3,6.4,3.5,6.6,3.8,6.6z M9.1,10.5H3.7c-0.3,0-0.5,0.3-0.4,0.6c0,0.3,0.3,0.5,0.6,0.4h5.3c0.3,0,0.5-0.2,0.5-0.5
	S9.4,10.5,9.1,10.5z M11.6,8.1H3.8c-0.3,0-0.5,0.3-0.5,0.5c0,0.3,0.3,0.5,0.5,0.5h7.8c0.3,0,0.5-0.3,0.5-0.5
	C12.1,8.3,11.9,8.1,11.6,8.1z"/>
</svg>
