<?xml version="1.0" encoding="utf-8"?>
<!-- Generator: Adobe Illustrator 22.0.1, SVG Export Plug-In . SVG Version: 6.00 Build 0)  -->
<svg version="1.1" id="图层_1" xmlns="http://www.w3.org/2000/svg" xmlns:xlink="http://www.w3.org/1999/xlink" x="0px" y="0px"
	 viewBox="0 0 15.2 17" style="enable-background:new 0 0 15.2 17;" xml:space="preserve">
<style type="text/css">
	.st0{fill:#00E1FF;}
</style>
<g>
	<g>
		<path class="st0" d="M7.7,14c-3.9,0-7.1-1.4-7.1-3l0,3c0,1.7,3.2,3,7.1,3s7.1-1.4,7.1-3v-3C14.9,12.6,11.7,14,7.7,14z"/>
		<path class="st0" d="M7.8,10.3c-3.9,0-7.1-1.4-7.1-3l0,3c0,1.7,3.2,3,7.1,3s7.1-1.4,7.1-3v-3C14.9,9,11.7,10.3,7.8,10.3z"/>
		<path class="st0" d="M7.8,6.7c-3.9,0-7.1-1.4-7.1-3l0,3c0,1.7,3.2,3,7.1,3s7.1-1.4,7.1-3v-3C14.9,5.3,11.7,6.7,7.8,6.7z"/>
		<path class="st0" d="M0.6,3.1c0,1.7,3.2,3,7.1,3s7.1-1.4,7.1-3s-3.2-3-7.1-3S0.6,1.4,0.6,3.1z"/>
	</g>
</g>
</svg>
