<?xml version="1.0" encoding="utf-8"?>
<!-- Generator: Adobe Illustrator 22.0.1, SVG Export Plug-In . SVG Version: 6.00 Build 0)  -->
<svg version="1.1" id="图层_1" xmlns="http://www.w3.org/2000/svg" xmlns:xlink="http://www.w3.org/1999/xlink" x="0px" y="0px"
	 viewBox="0 0 84.8 9.1" style="enable-background:new 0 0 84.8 9.1;" xml:space="preserve">
<style type="text/css">
	.st0{opacity:0.7;fill:#00E1FF;}
	.st1{opacity:0.7;fill:none;stroke:#00E1FF;stroke-miterlimit:10;}
</style>
<polygon class="st0" points="76.2,8.5 34.9,8.5 41.1,0.9 83.5,0.9 "/>
<polygon class="st0" points="38.4,0.9 31.8,8.5 23.6,8.5 30,0.9 "/>
<polygon class="st0" points="27.1,0.9 20.6,8.5 12.3,8.5 18.8,0.9 "/>
<polygon class="st0" points="15.9,0.9 9.3,8.5 1.1,8.5 7.5,0.9 "/>
<polygon class="st1" points="76.2,8.5 34.9,8.5 41.1,0.9 83.5,0.9 "/>
<polygon class="st1" points="38.4,0.9 31.8,8.5 23.6,8.5 30,0.9 "/>
<polygon class="st1" points="27.1,0.9 20.6,8.5 12.3,8.5 18.8,0.9 "/>
<polygon class="st1" points="15.9,0.9 9.3,8.5 1.1,8.5 7.5,0.9 "/>
</svg>
