<?xml version="1.0" encoding="utf-8"?>
<!-- Generator: Adobe Illustrator 22.0.1, SVG Export Plug-In . SVG Version: 6.00 Build 0)  -->
<svg version="1.1" id="图层_2" xmlns="http://www.w3.org/2000/svg" xmlns:xlink="http://www.w3.org/1999/xlink" x="0px" y="0px"
	 viewBox="0 0 159.2 155.8" style="enable-background:new 0 0 159.2 155.8;" xml:space="preserve">
<style type="text/css">
	.st0{opacity:0.8;}
	.st1{fill:#00E1FF;}
	.st2{opacity:0.3;fill:#00E1FF;}
	.st3{fill:none;stroke:#1FEFFF;stroke-miterlimit:10;stroke-dasharray:1,3;}
</style>
<g class="st0">
	<polygon class="st1" points="116,2.5 119,2.5 121.5,0 118.2,0 	"/>
	<polygon class="st1" points="44.1,2.5 41,2.5 38.5,0 41.8,0 	"/>
	<g>
		<path class="st1" d="M159,155.4H0.4l0-0.2L0.3,97L0.2,4.8L5.1,0h33.7l2.5,2.5h8.8l2.3,2.5h55.3l2.3-2.5h8.8l2.5-2.5h33.4l4.5,4.8
			v0.1L159,155.4z M0.7,155.1h157.9l0.2-150.2l-4.3-4.6h-33.1l-2.5,2.5h-8.8l-2.3,2.5H52.3L50,2.8h-8.8l-2.5-2.5H5.2L0.5,4.9
			L0.7,155.1z"/>
	</g>
	<polygon class="st1" points="107.7,5.2 52.2,5.2 50.4,3.3 109.2,3.3 	"/>
</g>
<polygon class="st2" points="39.2,0.9 5.1,0.9 1,5.1 1,154.8 159,154.8 159,5.1 154.9,0.9 118.7,0.9 116.7,3 110.5,3 108.4,5.1 
	52.6,5.1 50.6,3 42.3,3 40.2,0.9 "/>
<line class="st3" x1="6" y1="60" x2="152.7" y2="60"/>
<line class="st3" x1="6" y1="105.1" x2="152.7" y2="105.1"/>
</svg>
