<?xml version="1.0" encoding="utf-8"?>
<!-- Generator: Adobe Illustrator 22.1.0, SVG Export Plug-In . SVG Version: 6.00 Build 0)  -->
<svg version="1.1" id="图层_1" xmlns="http://www.w3.org/2000/svg" xmlns:xlink="http://www.w3.org/1999/xlink" x="0px" y="0px"
	 viewBox="0 0 515 91" style="enable-background:new 0 0 515 91;" xml:space="preserve">
<style type="text/css">
	.st0{opacity:0.2;fill:#00EDFF;}
	.st1{fill:none;stroke:#00E1FF;stroke-miterlimit:10;}
	.st2{fill:#00E1FF;}
</style>
<polygon class="st0" points="48.6,19.5 48.6,29.6 46.5,32.2 46.5,51.3 48.6,54.9 48.6,71.2 61.7,79 464.4,79 480.7,66.4 480.7,58.9 
	478.2,58.9 478.2,29.6 480.7,27.3 480.7,17.2 472.7,11.7 57.2,11.7 "/>
<line class="st1" x1="49.2" y1="11.7" x2="4" y2="50"/>
<polyline class="st1" points="361.4,88.2 49.4,88.2 34.2,78.3 34.2,53.4 "/>
<polyline class="st1" points="491.6,77 477.2,88.2 426.2,88.2 "/>
<line class="st1" x1="476.9" y1="79.3" x2="515" y2="50.2"/>
<polyline class="st1" points="147.2,3 482,3 493.8,12.6 493.8,32.2 "/>
<polyline class="st1" points="36.7,14.1 49.9,3 81.1,3 "/>
<circle class="st1" cx="35" cy="15.6" r="2.8"/>
<circle class="st2" cx="2.8" cy="50.6" r="2.8"/>
<polygon class="st2" points="34.2,75.4 54.1,88.2 49.4,88.2 34.2,78.3 "/>
<line class="st1" x1="34.2" y1="69.1" x2="56.3" y2="84.1"/>
<line class="st1" x1="52.2" y1="78" x2="67.3" y2="88.2"/>
<circle class="st1" cx="493.8" cy="75.3" r="2.8"/>
<polygon class="st2" points="476.4,3 493.8,17.2 493.8,12.6 482,3 "/>
<polygon class="st1" points="48.6,19.5 48.6,29.6 46.5,32.2 46.5,51.3 48.6,54.9 48.6,71.2 61.7,79 464.4,79 480.7,66.4 480.7,58.9 
	478.2,58.9 478.2,29.6 480.7,27.3 480.7,17.2 472.7,11.7 57.2,11.7 "/>
<g>
	<line class="st1" x1="377.9" y1="88.2" x2="369.6" y2="79.9"/>
	<line class="st1" x1="387.6" y1="88.2" x2="379.3" y2="79.9"/>
	<line class="st1" x1="397.3" y1="88.2" x2="388.9" y2="79.9"/>
	<line class="st1" x1="407" y1="88.2" x2="398.6" y2="79.9"/>
	<line class="st1" x1="416.7" y1="88.2" x2="408.3" y2="79.9"/>
</g>
<circle class="st2" cx="426.2" cy="88.2" r="2.8"/>
<g>
	<line class="st1" x1="98.9" y1="11.4" x2="90.6" y2="3"/>
	<line class="st1" x1="108.6" y1="11.4" x2="100.3" y2="3"/>
	<line class="st1" x1="118.3" y1="11.4" x2="110" y2="3"/>
	<line class="st1" x1="128" y1="11.4" x2="119.7" y2="3"/>
	<line class="st1" x1="137.7" y1="11.4" x2="129.4" y2="3"/>
</g>
<circle class="st2" cx="80.9" cy="3" r="2.8"/>
</svg>
